<svg xmlns="http://www.w3.org/2000/svg" viewBox="0 0 550 300" xmlns:v="https://vecta.io/nano"><path d="M0 0h550v300H0z" fill="#ccc" opacity="0"/><g opacity=".25"><path d="M252.332 80.902a64.204 64.204 0 0 1 35.44-.09 113.279 113.279 0 0 1-5.48 13.53 40.135 40.135 0 0 0-24.53.08c-1.93-4.45-4.1-8.85-5.43-13.52z" fill="#333"/><path d="M217.352 110.422c5.95-10.52 14.46-20.12 25.6-25.2 1.6 4.4 3.48 8.66 5.34 12.94a45.878 45.878 0 0 0-17.61 17.73l-13.33-5.48z" fill="#4d4d4d"/><path d="M298.212 85.322a56.09 56.09 0 0 1 24.28 24.76c-4.07 2.02-8.3 3.7-12.47 5.53-2.74-3.2-4.86-6.9-7.86-9.87-2.95-3.06-6.67-5.2-9.94-7.9a84.725 84.725 0 0 1 4.8-12.07l1.2-.46z" fill="#e6e6e6"/><path d="M213.652 119.962c4.27 2.03 9.3 3.02 13.04 5.8a46.56 46.56 0 0 0 .23 24.46q-6.585 2.805-13.2 5.53a60.206 60.206 0 0 1-.06-35.8z" fill="#666"/><path d="M313.622 124.912c4.36-1.73 8.54-4 13.15-5.04a60.38 60.38 0 0 1 .19 35.17c-4.7-.98-8.87-3.48-13.4-4.97a47.94 47.94 0 0 0 .06-25.16z" fill="#ccc"/><path d="M217.892 164.982l12.97-5.4a45.802 45.802 0 0 0 17.66 17.65l-5.45 13.27c-10.5-5.93-20.08-14.44-25.18-25.53z" fill="gray"/><path d="M292.262 177.022a47.383 47.383 0 0 0 17.59-17.71l13.05 5.4a55.983 55.983 0 0 1-25.29 25.31c-1.82-4.3-3.78-8.57-5.35-13z" fill="#b3b3b3"/><path d="M252.462 194.272l5.48-13.22c8.18 2.5 16.82 1.7 25.1.15 1.66 4.36 3.52 8.64 5.33 12.95a61.923 61.923 0 0 1-35.9.12z" fill="#999"/></g><path d="M293.116 127.038a2.495 2.495 0 0 1 .128 1.595 3.018 3.018 0 0 1-.827 1.584 2.42 2.42 0 0 1-1.771.722h-9.9a5.225 5.225 0 0 0-1.642.209 1.947 1.947 0 0 0-1.048.804L265.543 152a1.88 1.88 0 0 1 1.013-.745 5.069 5.069 0 0 1 1.654-.222h24.136a8.206 8.206 0 0 0 5.254-2.213 12.08 12.08 0 0 0 3.704-5.137 7.089 7.089 0 0 0-.081-5.836q-1.486-2.988-6.08-4.287a13.847 13.847 0 0 0 5.591-3.6 7.402 7.402 0 0 0 1.911-4.263v-1.188a6.479 6.479 0 0 0-1.841-4.042 5.058 5.058 0 0 0-3.751-1.689h-21.818a4.836 4.836 0 0 0-1.631.221 1.91 1.91 0 0 0-1.037.792l-4.67 7.502a1.888 1.888 0 0 1 1.014-.768 4.663 4.663 0 0 1 1.584-.222l21.55.012a1.111 1.111 0 0 1 1.072.722zm-14.095 16.46l3.145-5.032h9.016a1.964 1.964 0 0 1 1.712.792 2.039 2.039 0 0 1 .303 1.724 2.996 2.996 0 0 1-1.13 1.736 4.022 4.022 0 0 1-2.54.781zm-4.59-12.338a4.409 4.409 0 0 1 1.363-.209l-8.154-.012a4.833 4.833 0 0 0-1.63.221 1.854 1.854 0 0 0-1.025.781l-10.1 16.18 1.724-17.182h-7.012l-1.77 17.647a1.982 1.982 0 0 0 .839 1.666 2.736 2.736 0 0 0 1.817.78h9.32a3.114 3.114 0 0 0 1.526-.373 2.592 2.592 0 0 0 .978-.932l11.1-17.776a1.909 1.909 0 0 1 1.036-.792zm-37.903-4.635a4.793 4.793 0 0 1 1.619-.222h23.18a4.694 4.694 0 0 0 1.596-.221 1.834 1.834 0 0 0 1.025-.769l4.67-7.5a1.929 1.929 0 0 1-1.013.757 5.622 5.622 0 0 1-1.643.198h-23.1a4.929 4.929 0 0 0-1.631.221 1.984 1.984 0 0 0-1.048.792l-4.67 7.502a1.875 1.875 0 0 1 1.025-.768z" fill="#ccc"/></svg>