<?xml version="1.0" encoding="UTF-8" ?>
<!DOCTYPE svg PUBLIC "-//W3C//DTD SVG 1.1//EN" "http://www.w3.org/Graphics/SVG/1.1/DTD/svg11.dtd">
<svg width="260pt" height="259pt" viewBox="0 0 260 259" version="1.1" xmlns="http://www.w3.org/2000/svg">
<g id="#080808ff">
</g>
<g id="#ffffffff">
<path fill="#ffffff" opacity="1.00" d=" M 111.63 19.77 C 137.79 15.62 165.32 21.17 187.78 35.22 C 198.82 41.74 208.04 50.86 216.42 60.46 C 230.13 77.74 238.86 99.04 240.63 121.07 C 240.70 127.08 240.65 133.08 240.66 139.08 C 239.03 161.61 230.33 183.52 216.06 201.02 C 210.70 207.25 204.87 213.07 198.58 218.36 C 180.71 232.34 158.65 241.09 135.94 242.37 C 110.10 244.02 83.76 236.39 62.88 221.05 C 47.21 209.23 34.17 193.68 26.43 175.56 C 11.48 142.55 14.40 102.28 33.62 71.62 C 46.35 51.80 64.88 35.40 86.89 26.69 C 94.86 23.51 103.17 21.17 111.63 19.77 M 123.22 62.04 C 119.32 63.46 116.04 66.35 113.78 69.79 C 109.15 76.71 110.21 86.98 116.49 92.56 C 121.77 98.62 131.28 99.52 138.22 96.01 C 143.66 92.61 148.51 86.80 147.89 79.99 C 148.62 72.66 143.62 65.74 137.21 62.65 C 132.77 61.09 127.78 60.88 123.22 62.04 M 112.43 114.95 C 112.46 142.01 112.32 169.08 112.49 196.14 C 123.86 196.04 135.22 196.11 146.59 196.10 C 146.57 169.06 146.61 142.03 146.56 114.99 C 135.18 114.87 123.80 114.95 112.43 114.95 Z" />
</g>
</svg>
