<?xml version="1.0" encoding="utf-8"?>
<!-- Generator: Adobe Illustrator 23.0.6, SVG Export Plug-In . SVG Version: 6.00 Build 0)  -->
<svg version="1.1" xmlns="http://www.w3.org/2000/svg" xmlns:xlink="http://www.w3.org/1999/xlink" x="0px" y="0px"
	 viewBox="0 0 747 100.1" style="enable-background:new 0 0 747 100.1;" xml:space="preserve">
<style type="text/css">
	.st0{display:none;}
	.st1{display:inline;fill:#F27722;}
	.st2{enable-background:new    ;}
	.st3{fill:#FFFEFE;}
	.st4{fill:#FFFFFF;}
	.st5{fill:#0356A9;}
</style>
<g id="Lag_2" class="st0">
	<rect x="-5" y="-28" class="st1" width="742" height="186"/>
</g>
<g id="Layer_15_Billede">
	<title>WEB_LOGO</title>
	<g class="st2">
		<path class="st3" d="M369.8,50.1v7.3h-11.5V88h-8.5V57.3h-11.5v-7.3H369.8z"/>
	</g>
	<g class="st2">
		<path class="st3" d="M388.3,88c-1.5-3.2-3-6.5-4.5-9.9s-2.9-6.8-4.2-10.2c-1.3-3.4-2.5-6.6-3.6-9.6c-1.1-3.1-2.1-5.8-2.9-8.2h9.4
			c0.7,2.2,1.5,4.6,2.4,7.1c0.9,2.5,1.8,5.1,2.7,7.6c0.9,2.5,1.8,4.9,2.6,7.2s1.6,4.3,2.4,6c0.7-1.7,1.5-3.7,2.3-6
			c0.8-2.3,1.7-4.7,2.6-7.2c0.9-2.5,1.8-5,2.7-7.6c0.9-2.5,1.7-4.9,2.4-7.1h9.1c-0.9,2.4-1.8,5.2-2.9,8.2c-1.1,3.1-2.3,6.3-3.6,9.6
			c-1.3,3.4-2.7,6.8-4.2,10.2s-2.9,6.7-4.5,9.9H388.3z"/>
		<path class="st3" d="M452.5,60c0,1.4-0.3,2.7-0.8,4c-0.5,1.3-1.3,2.5-2.1,3.7c-0.9,1.2-1.9,2.3-3,3.4c-1.1,1.1-2.2,2.1-3.2,3.1
			c-0.5,0.5-1.1,1.1-1.8,1.7c-0.6,0.6-1.3,1.3-1.8,1.9c-0.6,0.7-1.1,1.3-1.6,1.8s-0.7,1-0.8,1.4h16.3V88h-25.3
			c-0.1-0.4-0.1-0.9-0.1-1.5s0-1.1,0-1.3c0-1.8,0.3-3.4,0.8-4.8c0.6-1.5,1.3-2.8,2.2-4.1c0.9-1.3,1.9-2.4,3.1-3.5
			c1.2-1.1,2.3-2.2,3.4-3.3c0.9-0.8,1.7-1.6,2.5-2.4c0.8-0.7,1.4-1.5,2-2.2c0.6-0.7,1-1.4,1.4-2.1c0.3-0.7,0.5-1.4,0.5-2.2
			c0-1.6-0.5-2.7-1.4-3.4c-0.9-0.7-2-1-3.4-1c-1,0-1.9,0.2-2.8,0.5c-0.9,0.3-1.6,0.7-2.4,1.1c-0.7,0.4-1.3,0.8-1.8,1.3
			c-0.5,0.4-0.9,0.8-1.2,1l-4.1-5.7c1.6-1.5,3.5-2.7,5.6-3.7c2.1-1,4.4-1.5,6.9-1.5c2.2,0,4.1,0.3,5.8,0.8c1.6,0.5,2.9,1.2,4,2.2
			c1,0.9,1.8,2.1,2.3,3.4S452.5,58.3,452.5,60z"/>
		<path class="st3" d="M463.4,98.2H455l18.4-53h8.3L463.4,98.2z"/>
		<path class="st3" d="M497.4,88.5c-2.1,0-4.2-0.1-6.2-0.2c-2.1-0.1-4.2-0.4-6.4-0.9V50.6c1.8-0.3,3.7-0.6,5.8-0.7
			c2.1-0.2,4-0.2,5.8-0.2c2.4,0,4.6,0.2,6.7,0.5c2,0.3,3.8,0.9,5.2,1.8c1.5,0.8,2.6,1.9,3.4,3.3s1.2,3.1,1.2,5.1
			c0,3-1.5,5.4-4.4,7.2c2.4,0.9,4.1,2.2,4.9,3.7c0.9,1.6,1.3,3.3,1.3,5.3c0,4-1.5,7-4.4,9C507.5,87.5,503.1,88.5,497.4,88.5z
			 M493.1,65h4.2c2.6,0,4.5-0.3,5.6-1c1.1-0.7,1.7-1.8,1.7-3.3c0-1.5-0.6-2.6-1.8-3.2s-2.9-0.9-5.2-0.9c-0.7,0-1.5,0-2.4,0
			c-0.8,0-1.6,0.1-2.2,0.1V65z M493.1,71.5v9.8c0.6,0.1,1.3,0.1,2,0.2c0.7,0,1.5,0.1,2.4,0.1c2.6,0,4.6-0.4,6.2-1.1
			c1.6-0.7,2.4-2.1,2.4-4.1c0-1.8-0.7-3-2-3.8s-3.2-1.1-5.6-1.1H493.1z"/>
		<path class="st3" d="M548,73.6c0,2.3-0.3,4.3-1,6.2c-0.7,1.9-1.6,3.5-2.8,4.8c-1.2,1.3-2.7,2.4-4.5,3.1c-1.7,0.7-3.7,1.1-5.8,1.1
			c-2.1,0-4-0.4-5.8-1.1c-1.7-0.7-3.2-1.8-4.5-3.1c-1.2-1.3-2.2-2.9-2.9-4.8c-0.7-1.9-1-4-1-6.2s0.4-4.3,1.1-6.2
			c0.7-1.9,1.7-3.5,3-4.8c1.3-1.3,2.8-2.3,4.5-3.1c1.7-0.7,3.6-1.1,5.7-1.1c2.1,0,4,0.4,5.7,1.1c1.7,0.7,3.2,1.8,4.5,3.1
			c1.2,1.3,2.2,2.9,2.9,4.8C547.6,69.2,548,71.3,548,73.6z M539.7,73.6c0-2.5-0.5-4.5-1.5-5.9c-1-1.4-2.4-2.2-4.3-2.2
			s-3.3,0.7-4.3,2.2c-1,1.4-1.5,3.4-1.5,5.9c0,2.5,0.5,4.5,1.5,6c1,1.5,2.5,2.2,4.3,2.2s3.3-0.7,4.3-2.2
			C539.2,78.1,539.7,76.1,539.7,73.6z"/>
		<path class="st3" d="M571.7,66.4c-0.7-0.2-1.6-0.4-2.6-0.6c-1-0.2-2-0.3-3.2-0.3c-0.5,0-1.1,0-1.8,0.1c-0.7,0.1-1.3,0.2-1.6,0.3
			v22h-8.2V60.7c1.5-0.5,3.2-1,5.2-1.5s4.2-0.7,6.7-0.7c0.4,0,1,0,1.6,0.1c0.6,0.1,1.2,0.1,1.9,0.2c0.6,0.1,1.2,0.2,1.9,0.3
			c0.6,0.1,1.2,0.3,1.6,0.5L571.7,66.4z"/>
		<path class="st3" d="M577.4,60.2c1.4-0.4,3.2-0.8,5.4-1.1c2.2-0.3,4.5-0.5,6.9-0.5c2.4,0,4.5,0.3,6.1,1c1.6,0.6,2.9,1.5,3.9,2.7
			c0.9,1.2,1.6,2.6,2,4.2c0.4,1.6,0.6,3.4,0.6,5.4V88h-8.2V72.7c0-2.6-0.3-4.5-1-5.6c-0.7-1.1-2-1.6-3.9-1.6c-0.6,0-1.2,0-1.9,0.1
			c-0.7,0.1-1.2,0.1-1.8,0.2V88h-8.2V60.2z"/>
		<path class="st3" d="M609.7,88V46.8l8.2-1.3v13.8c0.5-0.2,1.3-0.4,2.1-0.5c0.9-0.2,1.7-0.2,2.5-0.2c2.3,0,4.3,0.3,5.8,1
			c1.6,0.6,2.8,1.5,3.7,2.7s1.6,2.6,2,4.2c0.4,1.6,0.6,3.4,0.6,5.4V88h-8.2V72.7c0-2.6-0.3-4.5-1-5.6c-0.7-1.1-1.9-1.6-3.8-1.6
			c-0.7,0-1.4,0.1-2.1,0.2c-0.6,0.1-1.2,0.3-1.7,0.4V88H609.7z"/>
		<path class="st3" d="M668.9,73.6c0,2.3-0.3,4.3-1,6.2s-1.6,3.5-2.8,4.8c-1.2,1.3-2.7,2.4-4.5,3.1c-1.7,0.7-3.7,1.1-5.8,1.1
			c-2.1,0-4-0.4-5.8-1.1s-3.2-1.8-4.5-3.1c-1.2-1.3-2.2-2.9-2.9-4.8c-0.7-1.9-1-4-1-6.2s0.4-4.3,1.1-6.2c0.7-1.9,1.7-3.5,3-4.8
			c1.3-1.3,2.8-2.3,4.5-3.1c1.7-0.7,3.6-1.1,5.7-1.1c2.1,0,4,0.4,5.7,1.1c1.7,0.7,3.2,1.8,4.5,3.1c1.2,1.3,2.2,2.9,2.9,4.8
			C668.6,69.2,668.9,71.3,668.9,73.6z M660.6,73.6c0-2.5-0.5-4.5-1.5-5.9c-1-1.4-2.4-2.2-4.3-2.2s-3.3,0.7-4.3,2.2
			c-1,1.4-1.5,3.4-1.5,5.9c0,2.5,0.5,4.5,1.5,6c1,1.5,2.5,2.2,4.3,2.2s3.3-0.7,4.3-2.2S660.6,76.1,660.6,73.6z"/>
		<path class="st3" d="M686.7,88.6c-2.4,0-4.3-0.3-5.8-0.8c-1.5-0.5-2.6-1.1-3.5-2c-0.9-0.9-1.4-1.9-1.8-3.1
			c-0.3-1.2-0.5-2.6-0.5-4.1V46.8l8.2-1.3v31.4c0,0.7,0.1,1.4,0.2,2c0.1,0.6,0.3,1.1,0.6,1.5c0.3,0.4,0.8,0.7,1.3,1
			c0.6,0.3,1.4,0.4,2.4,0.5L686.7,88.6z"/>
		<path class="st3" d="M708.4,72.7c0-2.6-0.3-4.5-1-5.6c-0.7-1.1-1.8-1.6-3.5-1.6c-0.5,0-1,0-1.6,0.1s-1.1,0.1-1.6,0.2V88h-8.2V60.2
			c0.7-0.2,1.5-0.4,2.4-0.6c0.9-0.2,1.9-0.4,3-0.5s2.1-0.3,3.2-0.4c1.1-0.1,2.2-0.1,3.2-0.1c2.1,0,3.8,0.3,5.1,0.8s2.4,1.2,3.2,1.9
			c1.2-0.8,2.5-1.5,4-2c1.5-0.5,2.9-0.7,4.2-0.7c2.3,0,4.2,0.3,5.7,1c1.5,0.6,2.7,1.5,3.5,2.7s1.5,2.6,1.8,4.2
			c0.3,1.6,0.5,3.4,0.5,5.4V88h-8.2V72.7c0-2.6-0.3-4.5-1-5.6s-1.8-1.6-3.5-1.6c-0.4,0-1.1,0.1-1.8,0.3c-0.8,0.2-1.4,0.5-1.9,0.8
			c0.3,0.8,0.4,1.7,0.5,2.7s0.1,1.9,0.1,3V88h-8.2V72.7z"/>
	</g>
	<g id="Lag_3">
	</g>
</g>
<g id="Lag_7">
	<path class="st4" d="M282.8,27.2c0.6,1.3,0.7,2.7,0.4,4.5c-0.4,1.8-1.1,3.3-2.3,4.4c-1.3,1.3-3,2-5,2h-27.7c-1.9,0-3.5,0.2-4.6,0.6
		c-1.3,0.5-2.3,1.2-2.9,2.2l-35,56.1c0.6-0.9,1.6-1.7,2.8-2.1c1.2-0.4,2.7-0.6,4.6-0.6h67.5c4.9,0,9.8-2.1,14.7-6.2
		c4.9-4,8.3-8.8,10.4-14.4c2.2-6.1,2.2-11.5-0.2-16.3c-2.8-5.6-8.4-9.6-17-12c6.8-2.6,12-5.9,15.6-10.1c3.2-3.6,5-7.6,5.3-11.9v-3.3
		c-0.4-4.4-2.1-8.2-5.2-11.3c-3-3.2-6.6-4.7-10.5-4.7h-61c-1.9,0-3.4,0.2-4.6,0.6c-1.3,0.5-2.3,1.2-2.9,2.2l-13.1,21
		c0.7-1,1.6-1.7,2.8-2.1c1.1-0.4,2.6-0.6,4.4-0.6l60.3,0C281.2,25.2,282.2,25.9,282.8,27.2L282.8,27.2z M243.4,73.2l8.8-14.1h25.2
		c2.2,0,3.7,0.8,4.8,2.2c1,1.3,1.3,3,0.8,4.8c-0.4,1.9-1.5,3.6-3.2,4.9c-1.9,1.5-4.3,2.2-7.1,2.2H243.4L243.4,73.2z"/>
	<path class="st4" d="M230.5,38.7c1-0.4,2.3-0.6,3.8-0.6l-22.8,0c-1.9,0-3.4,0.2-4.6,0.6c-1.3,0.4-2.2,1.2-2.9,2.2l-28.3,45.3
		l4.8-48.1H161l-5,49.4c-0.2,1.6,0.6,3.1,2.3,4.7c1.7,1.5,3.4,2.2,5.1,2.2h26.1c1.6,0,3-0.4,4.3-1c1.1-0.6,2.1-1.5,2.7-2.6
		l31.1-49.7C228.3,39.9,229.2,39.2,230.5,38.7L230.5,38.7z"/>
	<path class="st4" d="M124.5,25.8c1.1-0.4,2.7-0.6,4.5-0.6h64.9c1.8,0,3.3-0.2,4.5-0.6c1.3-0.4,2.2-1.1,2.9-2.2l13.1-21
		c-0.7,1-1.6,1.7-2.8,2.1c-1.1,0.4-2.7,0.6-4.6,0.6h-64.7c-1.9,0-3.4,0.2-4.6,0.6c-1.3,0.5-2.3,1.2-2.9,2.2l-13.1,21
		C122.3,26.9,123.2,26.2,124.5,25.8L124.5,25.8z"/>
</g>
<g id="Lag_6">
	<path class="st4" d="M59.4,13.4c2-1,1.1-0.5,3.3-0.3c-0.1,22.5,0.2,45.1-0.1,67.6c-2,0.1-0.8,0.4-2.6-0.5c-5-2.5-9.9-5.1-14.6-8
		c-13-7-26.1-13.9-39.1-21c-1.9-1.2-5.3-3-3.9-5.7c2.2-2.8,5.6-4.2,8.7-5.8c4.7-2.3,9.1-5.1,13.9-7.4c7-3.4,13.6-7.7,20.7-11.1
		C50.3,18.8,54.6,15.6,59.4,13.4L59.4,13.4z"/>
</g>
<g id="Lag_4">
	<rect x="93" class="st5" width="6" height="100.1"/>
</g>
</svg>
