<svg id="acbe0b1c-45f6-4da9-aee7-a06afcb7ee59" data-name="Lag 1" xmlns="http://www.w3.org/2000/svg" viewBox="0 0 612.53575 98.28892"><defs><style>.eaabfd3c-7115-4911-9038-d06ba65afad9{fill:#fff;}</style></defs><title>Tegnebræt 1</title><path class="eaabfd3c-7115-4911-9038-d06ba65afad9" d="M87.24,2.76A9.42956,9.42956,0,0,0,94.19,0C89.4,6.97,85.26,14.37,80.63,21.45c-1.53,2.5-4.76,2.73-7.39,2.78-21.99.02-43.98-.04-65.97.02A9.09683,9.09683,0,0,0,0,27.27C4.63,20.04,9.01,12.65,13.67,5.45c1.65-2.46,4.92-2.62,7.6-2.66,21.99-.02,43.98.04,65.97-.03M104.9,5.71c1.49-2.55,4.74-2.88,7.41-2.92,20.64.01,41.29-.03,61.94.02,10.59.18005,17.66,12,15.38,21.77-2.07,10.17-11.49,16.62-20.6,20.09,6.82,2.08,13.91,5.73,17.08,12.48,3.73,8.08.7,17.51-4.32,24.31-5.23,7.09-13.33,13.25-22.56,12.78q-33.015-.045-66.04-.01c-3.02-.1-6.15.57-8.34,2.81C96,79.67,106.7,62.02,117.67,44.53c1.89-2.9,3.45-7,7.53-7.11,10.35-.49,20.75,0,31.11-.24,5.35-.01,8.77-6.84,6.33-11.35-.8-1.61-2.76-1.6-4.29-1.61q-29.565.03-59.11.01a10.43222,10.43222,0,0,0-7.59,2.54c4.64-6.87,8.73-14.1,13.25-21.06m18.47,67.02q14.985,0,29.95.01c4.52.07,9.37-3,9.92-7.74a5.35282,5.35282,0,0,0-4.98-6.25c-8.7-.21-17.41-.02-26.12-.08q-4.38,7.02-8.77,14.06M40.04,37.22c6.65.01,13.3,0,19.95.01-1.59,16.1-3.22,32.19-4.8,48.29,9.45-15.09,18.8-30.24,28.27-45.32,1.34-2.4,4.32-2.87,6.83-2.95,8.09-.08,16.17,0,24.26.01-2.48.41-5.64.42-7.08,2.88C97.02,56.73,86.75,73.44,76.36,90.07a8.02081,8.02081,0,0,1-7.02,4.13c-8.7.07-17.41.02-26.11.02-4.27.21-9.06-3.66-8.07-8.23q2.445-24.375,4.88-48.77M353.08,45.3c2.77-.01,5.54,0,8.31-.03-6.06,17.68-12.31,35.29-18.3,53-2.81.03-5.62.02-8.43,0,6.06-17.68,12.31-35.3,18.42-52.97m136.45,1.56c2.76-.4,5.51-.85,8.26-1.32-.03,4.57,0,9.14-.02,13.71,3.98-1,8.46-1.13,12.08,1.08,3.36,1.94,4.54,6.08,4.67,9.73.05,5.99-.02,11.98.01,17.98h-8.25c-.01-5.35.01-10.7.01-16.04.01-1.9-.11-3.94-1.35-5.48-2.09-1.64-4.81994-.81-7.17-.5.02,7.34-.01,14.67.02,22-2.76.02-5.51.02-8.26.02V46.86m65.75.01c2.75-.42,5.5-.87,8.25-1.33.1,10.96-.2,21.94.14,32.89-.08,2.44,2.43,3.22,4.38,3.6-.39,2.22-.77,4.44-1.17,6.66-3.21-.35-6.94-.45-9.33-2.96-2.01-1.94-2.06-4.96-2.24-7.56-.07-10.43,0-20.87-.03-31.3M306.7,54.37a18.526,18.526,0,0,1,20.72-3.39c5.18,2.85,5.88,10.28,2.87,14.95-3.66,5.86-9.76,9.65-13.68,15.33,5.55.07,11.11.02,16.67.03q-.01506,3.375,0,6.75c-8.51-.01-17.02.01-25.52-.01.01-2.85-.21-5.86,1.13-8.49,2.89-6.48,9.54-9.96,13.61-15.55,1.7-2.1,1.89-6.03-.97-7.22-3.91-1.73-7.87.89-10.87,3.2-1.28-1.89-2.62-3.75-3.96-5.6m-89.17-4.33h31.75v7.25H237.77c.02,10.25,0,20.5.01,30.74-2.92.01-5.83.01-8.75.01V57.29h-11.5V50.04m35.02,0h9.42c3.28,9.32,6.31,18.74,10.03,27.9,3.83-9.12,6.91-18.53,10.08-27.9h9.12a372.73739,372.73739,0,0,1-15.18,38c-2.79,0-5.57.02-8.35-.06a404.89075,404.89075,0,0,1-15.12-37.94m111.99.53c7.54-.86,15.72-2,22.9,1.13,6.3,2.54,7.07,12.57.94,15.77,8.15,2.49,8.06,15.22.75,18.66-7.62,3.66-16.49,2.49-24.58,1.4-.04-12.32-.01-24.64-.01-36.96m8.25,6.09c-.02,2.8-.01,5.59-.01,8.39,3-.04,6.08.21,9.01-.63,2.87-.81,3.56-5.24,1.04-6.82-3.11-1.55-6.7-1.01-10.04-.94m-.01,14.88v9.8c3.58.27,7.35.56,10.73-.92,3.3-1.45,3.06-7.14-.43-8.19-3.31-1.15-6.88-.56-10.3-.69m34.89-11.82c5.72-2.5,13.19-1.27,17.11,3.81a17.71671,17.71671,0,0,1,.55,19.51c-4.9,7.5-17.36,7.75-22.69.6-5.51-7.3-3.86-20.04,5.03-23.92m3,6.61c-3.45,2.9-3.39,8.32-1.89,12.22,1.36,3.78,7.02,4.42,9.25,1.12a12.57752,12.57752,0,0,0,.54-11.2c-1.25-3.01-5.29-3.82-7.9-2.14m23.35-5.52c6.04-2.16,12.67-2.95,18.92-1.19-.47,2.26-.91,4.52-1.34,6.78a21.13259,21.13259,0,0,0-9.32-.47q0,11.055,0,22.11h-8.25q0-13.62-.01-27.23m23.27-.64c6.08-1.23,12.57-2.67,18.62-.61,4.24,1.46,6.34,6.1,6.35,10.33.07,6.05-.01,12.1.02,18.15h-8.25c-.16-6.37.31-12.77-.22-19.11-.49-4.08-5.3-3.51-8.28-3.19q-.015,11.16,0,22.3h-8.25c.01-9.29-.02-18.58.01-27.87m73.17-1.01c5.82-1.87,13.03.04,16.3,5.43a17.828,17.828,0,0,1-.29,18.61c-5.02,7.42-17.51,7.53-22.71.26-5.76-7.73-3.2699-21.45,6.7-24.3m1.27,7.33c-3.29,3.07-3.26,8.51-1.53,12.39,1.57,3.75,7.35,3.9,9.31.43a12.85449,12.85449,0,0,0,.27-10.91c-1.27-3.04-5.51-3.78-8.05-1.91m40.82-6.32c6.6-1.24,14.29992-3.4,20.25.95,4.57-2.69,10.6-3.72,15.34-.87,3.28,2.03,4.38,6.08,4.39,9.72.02,6.02-.02,12.05,0,18.07h-8c-.26-6.63.65-13.38-.67993-19.91995-.87-3.36-4.99-2.74-7.49-1.85.72992,7.23.30993,14.51.42993,21.76q-4.14.015-8.26.01c-.18994-6.36.41-12.77-.33-19.1-.47-3.62-4.59991-3.77-7.42-3.2,0,7.43-.01,14.86.01,22.29q-4.14.015-8.26.01c.01-9.29-.02-18.58.02-27.87Z"/></svg>