<svg xmlns="http://www.w3.org/2000/svg" viewBox="0 0 550 300"><defs><style>.f147480c-edbb-44d7-a86f-920f5f691922{opacity:0;}.a7969183-d542-4665-83b5-846de39ba489{fill:#ccc;}.b01e1675-fd86-46af-8ee4-f5a72c802853{opacity:0.25;}.a41bcce3-7e7c-4758-ba40-f23410708065{fill:#333;}.a608214a-5bd9-481d-9f54-2fb12e083342{fill:#4d4d4d;}.ac14d1ea-e9cb-49fd-a485-3ce5d130280a{fill:#e6e6e6;}.e54ce4ed-e143-4473-a0d0-6b7b6e45028c{fill:#666;}.b29d2104-3acb-45af-b242-f5ab60247d47{fill:gray;}.aafc92cd-1a0e-45fb-9df3-8da56258773e{fill:#b3b3b3;}.ff56e6d8-6227-465c-988d-7ded969662cd{fill:#999;}</style></defs><title>ImageLoad_Article</title><g id="a194fc39-af45-43e5-a6df-13857d43a2ec" data-name="Lag 1" class="f147480c-edbb-44d7-a86f-920f5f691922"><rect class="a7969183-d542-4665-83b5-846de39ba489" width="550" height="300"/></g><g id="a1359883-c756-44e8-a61e-bbc4ce707a15" data-name="Lag 3" class="b01e1675-fd86-46af-8ee4-f5a72c802853"><path class="a41bcce3-7e7c-4758-ba40-f23410708065" d="M252.33168,80.90164a64.20432,64.20432,0,0,1,35.44-.09,113.27855,113.27855,0,0,1-5.48,13.53,40.13469,40.13469,0,0,0-24.53.08c-1.93-4.45005-4.09-8.85-5.43-13.52Z"/><path class="a608214a-5bd9-481d-9f54-2fb12e083342" d="M217.35169,110.42166c5.95-10.52,14.46-20.12,25.6-25.19,1.59,4.39,3.48,8.66,5.34,12.94a45.8782,45.8782,0,0,0-17.61,17.73c-4.44-1.83-8.87-3.7-13.33-5.48Z"/><path class="ac14d1ea-e9cb-49fd-a485-3ce5d130280a" d="M298.21167,85.32165a56.09015,56.09015,0,0,1,24.28,24.76c-4.07,2.02-8.3,3.71-12.47,5.53-2.74-3.19-4.86-6.89-7.86-9.87-2.95-3.06-6.67-5.2-9.94-7.89a84.72515,84.72515,0,0,1,4.8-12.07c.3-.12.89-.35,1.19-.46Z"/><path class="e54ce4ed-e143-4473-a0d0-6b7b6e45028c" d="M213.65167,119.96166c4.27,2.03,9.31,3.02,13.04,5.81a46.56026,46.56026,0,0,0,.23,24.46q-6.58506,2.805-13.21,5.53a60.20632,60.20632,0,0,1-.06-35.8Z"/><path class="a7969183-d542-4665-83b5-846de39ba489" d="M313.62168,124.91168c4.36-1.73,8.54-4.01,13.15-5.04a60.37978,60.37978,0,0,1,.19,35.17c-4.7-.98-8.87-3.48-13.4-4.97a47.94,47.94,0,0,0,.06-25.16Z"/><path class="b29d2104-3acb-45af-b242-f5ab60247d47" d="M217.89167,164.98165c4.34-1.76,8.64-3.6,12.97-5.39a45.80174,45.80174,0,0,0,17.66,17.65c-1.83,4.42-3.68,8.83-5.45,13.27-10.49-5.93-20.08-14.44-25.18-25.53Z"/><path class="aafc92cd-1a0e-45fb-9df3-8da56258773e" d="M292.26166,177.02166a47.38324,47.38324,0,0,0,17.59-17.71c4.33,1.84,8.7,3.6,13.05,5.39a55.983,55.983,0,0,1-25.29,25.31c-1.82-4.31-3.78-8.57-5.35-12.99Z"/><path class="ff56e6d8-6227-465c-988d-7ded969662cd" d="M252.46167,194.27166c1.84-4.4,3.56-8.85,5.48-13.22,8.18,2.5,16.82,1.71,25.09.15,1.66,4.36,3.52,8.64,5.33,12.95a61.92268,61.92268,0,0,1-35.9.12Z"/></g><g id="bb4e2615-48ed-42d6-aa1f-fb18572bcad2" data-name="Lag 2"><path class="a7969183-d542-4665-83b5-846de39ba489" d="M293.11551,127.0375a2.49479,2.49479,0,0,1,.12791,1.59545,3.01753,3.01753,0,0,1-.82659,1.58449,2.41969,2.41969,0,0,1-1.77079.722h-9.88973a5.22457,5.22457,0,0,0-1.64244.20948,1.94679,1.94679,0,0,0-1.04837.80383L265.54334,152a1.87985,1.87985,0,0,1,1.0133-.74533,5.06857,5.06857,0,0,1,1.65419-.22163h24.13589a8.20646,8.20646,0,0,0,5.25357-2.2132,12.08023,12.08023,0,0,0,3.704-5.137,7.08878,7.08878,0,0,0-.081-5.83571q-1.48607-2.988-6.08074-4.28668a13.84652,13.84652,0,0,0,5.59125-3.59967,7.402,7.402,0,0,0,1.91058-4.2635v-1.18809a6.47893,6.47893,0,0,0-1.84089-4.04174,5.05822,5.05822,0,0,0-3.75092-1.68923H275.235a4.83566,4.83566,0,0,0-1.63086.22114,1.91,1.91,0,0,0-1.03656.7921l-4.67129,7.50175a1.8883,1.8883,0,0,1,1.01374-.76836,4.663,4.663,0,0,1,1.58413-.22177l21.54975.01187a1.11078,1.11078,0,0,1,1.07156.7225Zm-14.09493,16.45923,3.14495-5.03235h9.01636a1.96428,1.96428,0,0,1,1.71241.79209,2.03936,2.03936,0,0,1,.30276,1.72387,2.99633,2.99633,0,0,1-1.12992,1.73574,4.02164,4.02164,0,0,1-2.53957.78065Z"/><path class="a7969183-d542-4665-83b5-846de39ba489" d="M274.4312,131.16064a4.409,4.409,0,0,1,1.36286-.20932l-8.154-.01188a4.83286,4.83286,0,0,0-1.6305.2212,1.85385,1.85385,0,0,0-1.0252.78074l-10.111,16.17978,1.72394-17.18172h-7.01249l-1.7705,17.64746a1.98219,1.98219,0,0,0,.83874,1.66591,2.73631,2.73631,0,0,0,1.81723.78023h9.31883a3.1137,3.1137,0,0,0,1.52584-.37273,2.59236,2.59236,0,0,0,.97847-.9319l11.10128-17.77566a1.90932,1.90932,0,0,1,1.03649-.79211Z"/><path class="a7969183-d542-4665-83b5-846de39ba489" d="M236.52689,126.5249a4.79305,4.79305,0,0,1,1.61912-.22177h23.18061a4.69448,4.69448,0,0,0,1.59573-.22113,1.83422,1.83422,0,0,0,1.025-.76892l4.67129-7.48981a1.9292,1.9292,0,0,1-1.01317.75691,5.62192,5.62192,0,0,1-1.6428.19809H242.85193a4.92885,4.92885,0,0,0-1.63078.22114,1.98353,1.98353,0,0,0-1.0483.7921l-4.67109,7.50175a1.87452,1.87452,0,0,1,1.02513-.76836Z"/></g></svg>